<svg width="1147" height="877" viewBox="0 0 1147 877" fill="none" xmlns="http://www.w3.org/2000/svg">
<g filter="url(#filter0_f_40_63)">
<path d="M377.429 517.719C289.451 471.716 407.717 371.87 412.909 362.286C418.582 366.004 429.928 381.384 429.928 413.168C429.928 452.897 465.407 476.595 575.596 467.012C685.785 457.428 754.148 443.313 763.379 506.741C772.609 570.168 465.407 563.721 377.429 517.719Z" fill="#FF75F1"/>
<path d="M377.429 517.719C289.451 471.716 407.717 371.87 412.909 362.286C418.582 366.004 429.928 381.384 429.928 413.168C429.928 452.897 465.407 476.595 575.596 467.012C685.785 457.428 754.148 443.313 763.379 506.741C772.609 570.168 465.407 563.721 377.429 517.719Z" stroke="black"/>
</g>
<g filter="url(#filter1_f_40_63)">
<path d="M614.176 400.942C554.744 330.21 689.355 268.842 764.09 247C745.604 256.575 725.121 284.162 791.077 317.912C873.523 360.101 881.382 410.368 808.575 479.933C735.768 549.499 688.465 489.358 614.176 400.942Z" fill="#00D1FF"/>
<path d="M614.176 400.942C554.744 330.21 689.355 268.842 764.09 247C745.604 256.575 725.121 284.162 791.077 317.912C873.523 360.101 881.382 410.368 808.575 479.933C735.768 549.499 688.465 489.358 614.176 400.942Z" stroke="black"/>
</g>
<g filter="url(#filter2_f_40_63)">
<path d="M882.856 527.473C882.856 574.672 831.363 612.934 767.842 612.934C704.321 612.934 652.828 574.672 652.828 527.473C652.828 480.274 704.321 442.012 767.842 442.012C831.363 442.012 882.856 480.274 882.856 527.473Z" fill="#4F0FA0"/>
</g>
<g filter="url(#filter3_f_40_63)">
<path d="M359.124 313.917C234.475 345.248 259.57 409.887 287.699 438.291C292.474 427.803 306.611 399.587 324.963 370.622C347.902 334.416 472.765 422.683 564.711 394.966C656.657 367.25 514.937 274.754 359.124 313.917Z" fill="#141CE0"/>
<path d="M359.124 313.917C234.475 345.248 259.57 409.887 287.699 438.291C292.474 427.803 306.611 399.587 324.963 370.622C347.902 334.416 472.765 422.683 564.711 394.966C656.657 367.25 514.937 274.754 359.124 313.917Z" stroke="black"/>
</g>
<defs>
<filter id="filter0_f_40_63" x="80.4873" y="97.5703" width="947.595" height="720.213" filterUnits="userSpaceOnUse" color-interpolation-filters="sRGB">
<feFlood flood-opacity="0" result="BackgroundImageFix"/>
<feBlend mode="normal" in="SourceGraphic" in2="BackgroundImageFix" result="shape"/>
<feGaussianBlur stdDeviation="132" result="effect1_foregroundBlur_40_63"/>
</filter>
<filter id="filter1_f_40_63" x="334.938" y="-17.4799" width="787.996" height="792.246" filterUnits="userSpaceOnUse" color-interpolation-filters="sRGB">
<feFlood flood-opacity="0" result="BackgroundImageFix"/>
<feBlend mode="normal" in="SourceGraphic" in2="BackgroundImageFix" result="shape"/>
<feGaussianBlur stdDeviation="132" result="effect1_foregroundBlur_40_63"/>
</filter>
<filter id="filter2_f_40_63" x="388.828" y="178.012" width="758.029" height="698.922" filterUnits="userSpaceOnUse" color-interpolation-filters="sRGB">
<feFlood flood-opacity="0" result="BackgroundImageFix"/>
<feBlend mode="normal" in="SourceGraphic" in2="BackgroundImageFix" result="shape"/>
<feGaussianBlur stdDeviation="132" result="effect1_foregroundBlur_40_63"/>
</filter>
<filter id="filter3_f_40_63" x="0.230713" y="39.8926" width="858.074" height="663.265" filterUnits="userSpaceOnUse" color-interpolation-filters="sRGB">
<feFlood flood-opacity="0" result="BackgroundImageFix"/>
<feBlend mode="normal" in="SourceGraphic" in2="BackgroundImageFix" result="shape"/>
<feGaussianBlur stdDeviation="132" result="effect1_foregroundBlur_40_63"/>
</filter>
</defs>
</svg>
